<svg width="1024" height="753" viewBox="0 0 1024 753" fill="none" xmlns="http://www.w3.org/2000/svg">
<g opacity="0.2" filter="url(#filter0_f_175_220)">
<ellipse cx="272.5" cy="94" rx="670.5" ry="350" fill="#B3A659"/>
</g>
<g opacity="0.6">
<path d="M679.93 30C681.356 30 682.436 30.605 683.17 31.8149C683.916 33.0115 684.29 34.7532 684.29 37.0401C684.29 39.327 683.916 41.0754 683.17 42.2853C682.436 43.4952 681.356 44.1002 679.93 44.1002C678.517 44.1002 677.437 43.4952 676.69 42.2853C675.943 41.0754 675.57 39.327 675.57 37.0401C675.57 34.7665 675.943 33.0248 676.69 31.8149C677.437 30.605 678.517 30 679.93 30ZM676.99 37.0401C676.99 38.6622 677.137 39.932 677.43 40.8494L681.87 32.0143C681.403 31.3894 680.756 31.077 679.93 31.077C679.01 31.077 678.29 31.5689 677.77 32.5528C677.25 33.5234 676.99 35.0192 676.99 37.0401ZM679.93 43.0033C680.863 43.0033 681.59 42.518 682.11 41.5474C682.63 40.5635 682.89 39.0611 682.89 37.0401C682.89 35.325 682.723 33.9954 682.39 33.0514L677.95 41.9662C678.43 42.6576 679.09 43.0033 679.93 43.0033Z" fill="url(#paint0_linear_175_220)"/>
<path d="M681.13 65.6365H684.07V66.6936H676.45V65.6365H679.85V54.4282L676.61 56.3627L676.05 55.4653L680.05 52.9922H681.13V65.6365Z" fill="url(#paint1_linear_175_220)"/>
<path d="M679.93 75.5856C681.356 75.5856 682.436 76.1906 683.17 77.4005C683.916 78.5971 684.29 80.3389 684.29 82.6257C684.29 84.9126 683.916 86.661 683.17 87.8709C682.436 89.0808 681.356 89.6858 679.93 89.6858C678.517 89.6858 677.437 89.0808 676.69 87.8709C675.943 86.661 675.57 84.9126 675.57 82.6257C675.57 80.3522 675.943 78.6104 676.69 77.4005C677.437 76.1906 678.517 75.5856 679.93 75.5856ZM676.99 82.6257C676.99 84.2478 677.137 85.5176 677.43 86.435L681.87 77.5999C681.403 76.975 680.756 76.6626 679.93 76.6626C679.01 76.6626 678.29 77.1545 677.77 78.1384C677.25 79.109 676.99 80.6048 676.99 82.6257ZM679.93 88.5889C680.863 88.5889 681.59 88.1036 682.11 87.133C682.63 86.1491 682.89 84.6467 682.89 82.6257C682.89 80.9106 682.723 79.581 682.39 78.637L677.95 87.5518C678.43 88.2432 679.09 88.5889 679.93 88.5889Z" fill="url(#paint2_linear_175_220)"/>
<path d="M681.13 111.222H684.07V112.279H676.45V111.222H679.85V100.014L676.61 101.948L676.05 101.051L680.05 98.5778H681.13V111.222Z" fill="url(#paint3_linear_175_220)"/>
<path d="M681.13 134.015H684.07V135.072H676.45V134.015H679.85V122.807L676.61 124.741L676.05 123.844L680.05 121.371H681.13V134.015Z" fill="url(#paint4_linear_175_220)"/>
<path d="M679.93 143.964C681.356 143.964 682.436 144.569 683.17 145.779C683.916 146.976 684.29 148.717 684.29 151.004C684.29 153.291 683.916 155.039 683.17 156.249C682.436 157.459 681.356 158.064 679.93 158.064C678.517 158.064 677.437 157.459 676.69 156.249C675.943 155.039 675.57 153.291 675.57 151.004C675.57 148.731 675.943 146.989 676.69 145.779C677.437 144.569 678.517 143.964 679.93 143.964ZM676.99 151.004C676.99 152.626 677.137 153.896 677.43 154.813L681.87 145.978C681.403 145.353 680.756 145.041 679.93 145.041C679.01 145.041 678.29 145.533 677.77 146.517C677.25 147.487 676.99 148.983 676.99 151.004ZM679.93 156.967C680.863 156.967 681.59 156.482 682.11 155.511C682.63 154.528 682.89 153.025 682.89 151.004C682.89 149.289 682.723 147.959 682.39 147.015L677.95 155.93C678.43 156.622 679.09 156.967 679.93 156.967Z" fill="url(#paint5_linear_175_220)"/>
<path d="M681.13 179.601H684.07V180.658H676.45V179.601H679.85V168.392L676.61 170.327L676.05 169.429L680.05 166.956H681.13V179.601Z" fill="url(#paint6_linear_175_220)"/>
<path d="M679.93 189.55C681.356 189.55 682.436 190.155 683.17 191.365C683.916 192.561 684.29 194.303 684.29 196.59C684.29 198.877 683.916 200.625 683.17 201.835C682.436 203.045 681.356 203.65 679.93 203.65C678.517 203.65 677.437 203.045 676.69 201.835C675.943 200.625 675.57 198.877 675.57 196.59C675.57 194.316 675.943 192.574 676.69 191.365C677.437 190.155 678.517 189.55 679.93 189.55ZM676.99 196.59C676.99 198.212 677.137 199.482 677.43 200.399L681.87 191.564C681.403 190.939 680.756 190.627 679.93 190.627C679.01 190.627 678.29 191.119 677.77 192.102C677.25 193.073 676.99 194.569 676.99 196.59ZM679.93 202.553C680.863 202.553 681.59 202.068 682.11 201.097C682.63 200.113 682.89 198.611 682.89 196.59C682.89 194.875 682.723 193.545 682.39 192.601L677.95 201.516C678.43 202.207 679.09 202.553 679.93 202.553Z" fill="url(#paint7_linear_175_220)"/>
<path d="M679.93 212.342C681.356 212.342 682.436 212.947 683.17 214.157C683.916 215.354 684.29 217.096 684.29 219.383C684.29 221.669 683.916 223.418 683.17 224.628C682.436 225.838 681.356 226.443 679.93 226.443C678.517 226.443 677.437 225.838 676.69 224.628C675.943 223.418 675.57 221.669 675.57 219.383C675.57 217.109 675.943 215.367 676.69 214.157C677.437 212.947 678.517 212.342 679.93 212.342ZM676.99 219.383C676.99 221.005 677.137 222.274 677.43 223.192L681.87 214.357C681.403 213.732 680.756 213.419 679.93 213.419C679.01 213.419 678.29 213.911 677.77 214.895C677.25 215.866 676.99 217.362 676.99 219.383ZM679.93 225.346C680.863 225.346 681.59 224.86 682.11 223.89C682.63 222.906 682.89 221.404 682.89 219.383C682.89 217.667 682.723 216.338 682.39 215.394L677.95 224.309C678.43 225 679.09 225.346 679.93 225.346Z" fill="url(#paint8_linear_175_220)"/>
<path d="M681.13 247.979H684.07V249.036H676.45V247.979H679.85V236.771L676.61 238.705L676.05 237.808L680.05 235.335H681.13V247.979Z" fill="url(#paint9_linear_175_220)"/>
<path d="M679.93 257.928C681.356 257.928 682.436 258.533 683.17 259.743C683.916 260.94 684.29 262.681 684.29 264.968C684.29 267.255 683.916 269.003 683.17 270.213C682.436 271.423 681.356 272.028 679.93 272.028C678.517 272.028 677.437 271.423 676.69 270.213C675.943 269.003 675.57 267.255 675.57 264.968C675.57 262.695 675.943 260.953 676.69 259.743C677.437 258.533 678.517 257.928 679.93 257.928ZM676.99 264.968C676.99 266.59 677.137 267.86 677.43 268.777L681.87 259.942C681.403 259.317 680.756 259.005 679.93 259.005C679.01 259.005 678.29 259.497 677.77 260.481C677.25 261.451 676.99 262.947 676.99 264.968ZM679.93 270.931C680.863 270.931 681.59 270.446 682.11 269.475C682.63 268.492 682.89 266.989 682.89 264.968C682.89 263.253 682.723 261.923 682.39 260.979L677.95 269.894C678.43 270.586 679.09 270.931 679.93 270.931Z" fill="url(#paint10_linear_175_220)"/>
<path d="M681.13 293.565H684.07V294.622H676.45V293.565H679.85V282.356L676.61 284.291L676.05 283.393L680.05 280.92H681.13V293.565Z" fill="url(#paint11_linear_175_220)"/>
<path d="M681.13 316.357H684.07V317.414H676.45V316.357H679.85V305.149L676.61 307.084L676.05 306.186L680.05 303.713H681.13V316.357Z" fill="url(#paint12_linear_175_220)"/>
<path d="M717.07 75.5856C718.497 75.5856 719.577 76.1906 720.31 77.4005C721.057 78.5971 721.43 80.3389 721.43 82.6257C721.43 84.9126 721.057 86.661 720.31 87.8709C719.577 89.0808 718.497 89.6858 717.07 89.6858C715.657 89.6858 714.577 89.0808 713.83 87.8709C713.084 86.661 712.71 84.9126 712.71 82.6257C712.71 80.3522 713.084 78.6104 713.83 77.4005C714.577 76.1906 715.657 75.5856 717.07 75.5856ZM714.13 82.6257C714.13 84.2478 714.277 85.5176 714.57 86.435L719.01 77.5999C718.543 76.975 717.897 76.6626 717.07 76.6626C716.15 76.6626 715.43 77.1545 714.91 78.1384C714.39 79.109 714.13 80.6048 714.13 82.6257ZM717.07 88.5889C718.003 88.5889 718.73 88.1036 719.25 87.133C719.77 86.1491 720.03 84.6467 720.03 82.6257C720.03 80.9106 719.863 79.581 719.53 78.637L715.09 87.5518C715.57 88.2432 716.23 88.5889 717.07 88.5889Z" fill="url(#paint13_linear_175_220)"/>
<path d="M718.27 111.222H721.21V112.279H713.59V111.222H716.99V100.014L713.75 101.948L713.19 101.051L717.19 98.5778H718.27V111.222Z" fill="url(#paint14_linear_175_220)"/>
<path d="M717.07 121.171C718.497 121.171 719.577 121.776 720.31 122.986C721.057 124.183 721.43 125.924 721.43 128.211C721.43 130.498 721.057 132.247 720.31 133.457C719.577 134.666 718.497 135.271 717.07 135.271C715.657 135.271 714.577 134.666 713.83 133.457C713.084 132.247 712.71 130.498 712.71 128.211C712.71 125.938 713.084 124.196 713.83 122.986C714.577 121.776 715.657 121.171 717.07 121.171ZM714.13 128.211C714.13 129.833 714.277 131.103 714.57 132.021L719.01 123.186C718.543 122.561 717.897 122.248 717.07 122.248C716.15 122.248 715.43 122.74 714.91 123.724C714.39 124.695 714.13 126.19 714.13 128.211ZM717.07 134.174C718.003 134.174 718.73 133.689 719.25 132.719C719.77 131.735 720.03 130.232 720.03 128.211C720.03 126.496 719.863 125.167 719.53 124.223L715.09 133.137C715.57 133.829 716.23 134.174 717.07 134.174Z" fill="url(#paint15_linear_175_220)"/>
<path d="M717.07 143.964C718.497 143.964 719.577 144.569 720.31 145.779C721.057 146.976 721.43 148.717 721.43 151.004C721.43 153.291 721.057 155.039 720.31 156.249C719.577 157.459 718.497 158.064 717.07 158.064C715.657 158.064 714.577 157.459 713.83 156.249C713.084 155.039 712.71 153.291 712.71 151.004C712.71 148.731 713.084 146.989 713.83 145.779C714.577 144.569 715.657 143.964 717.07 143.964ZM714.13 151.004C714.13 152.626 714.277 153.896 714.57 154.813L719.01 145.978C718.543 145.353 717.897 145.041 717.07 145.041C716.15 145.041 715.43 145.533 714.91 146.517C714.39 147.487 714.13 148.983 714.13 151.004ZM717.07 156.967C718.003 156.967 718.73 156.482 719.25 155.511C719.77 154.528 720.03 153.025 720.03 151.004C720.03 149.289 719.863 147.959 719.53 147.015L715.09 155.93C715.57 156.622 716.23 156.967 717.07 156.967Z" fill="url(#paint16_linear_175_220)"/>
<path d="M718.27 179.601H721.21V180.658H713.59V179.601H716.99V168.392L713.75 170.327L713.19 169.429L717.19 166.956H718.27V179.601Z" fill="url(#paint17_linear_175_220)"/>
<path d="M717.07 189.55C718.497 189.55 719.577 190.155 720.31 191.365C721.057 192.561 721.43 194.303 721.43 196.59C721.43 198.877 721.057 200.625 720.31 201.835C719.577 203.045 718.497 203.65 717.07 203.65C715.657 203.65 714.577 203.045 713.83 201.835C713.084 200.625 712.71 198.877 712.71 196.59C712.71 194.316 713.084 192.574 713.83 191.365C714.577 190.155 715.657 189.55 717.07 189.55ZM714.13 196.59C714.13 198.212 714.277 199.482 714.57 200.399L719.01 191.564C718.543 190.939 717.897 190.627 717.07 190.627C716.15 190.627 715.43 191.119 714.91 192.102C714.39 193.073 714.13 194.569 714.13 196.59ZM717.07 202.553C718.003 202.553 718.73 202.068 719.25 201.097C719.77 200.113 720.03 198.611 720.03 196.59C720.03 194.875 719.863 193.545 719.53 192.601L715.09 201.516C715.57 202.207 716.23 202.553 717.07 202.553Z" fill="url(#paint18_linear_175_220)"/>
<path d="M718.27 225.186H721.21V226.243H713.59V225.186H716.99V213.978L713.75 215.912L713.19 215.015L717.19 212.542H718.27V225.186Z" fill="url(#paint19_linear_175_220)"/>
<path d="M717.07 235.135C718.497 235.135 719.577 235.74 720.31 236.95C721.057 238.147 721.43 239.888 721.43 242.175C721.43 244.462 721.057 246.211 720.31 247.421C719.577 248.63 718.497 249.235 717.07 249.235C715.657 249.235 714.577 248.63 713.83 247.421C713.084 246.211 712.71 244.462 712.71 242.175C712.71 239.902 713.084 238.16 713.83 236.95C714.577 235.74 715.657 235.135 717.07 235.135ZM714.13 242.175C714.13 243.797 714.277 245.067 714.57 245.985L719.01 237.15C718.543 236.525 717.897 236.212 717.07 236.212C716.15 236.212 715.43 236.704 714.91 237.688C714.39 238.659 714.13 240.154 714.13 242.175ZM717.07 248.139C718.003 248.139 718.73 247.653 719.25 246.683C719.77 245.699 720.03 244.196 720.03 242.175C720.03 240.46 719.863 239.131 719.53 238.187L715.09 247.101C715.57 247.793 716.23 248.139 717.07 248.139Z" fill="url(#paint20_linear_175_220)"/>
<path d="M717.07 257.928C718.497 257.928 719.577 258.533 720.31 259.743C721.057 260.94 721.43 262.681 721.43 264.968C721.43 267.255 721.057 269.003 720.31 270.213C719.577 271.423 718.497 272.028 717.07 272.028C715.657 272.028 714.577 271.423 713.83 270.213C713.084 269.003 712.71 267.255 712.71 264.968C712.71 262.695 713.084 260.953 713.83 259.743C714.577 258.533 715.657 257.928 717.07 257.928ZM714.13 264.968C714.13 266.59 714.277 267.86 714.57 268.777L719.01 259.942C718.543 259.317 717.897 259.005 717.07 259.005C716.15 259.005 715.43 259.497 714.91 260.481C714.39 261.451 714.13 262.947 714.13 264.968ZM717.07 270.931C718.003 270.931 718.73 270.446 719.25 269.475C719.77 268.492 720.03 266.989 720.03 264.968C720.03 263.253 719.863 261.923 719.53 260.979L715.09 269.894C715.57 270.586 716.23 270.931 717.07 270.931Z" fill="url(#paint21_linear_175_220)"/>
<path d="M718.27 293.565H721.21V294.622H713.59V293.565H716.99V282.356L713.75 284.291L713.19 283.393L717.19 280.92H718.27V293.565Z" fill="url(#paint22_linear_175_220)"/>
<path d="M717.07 303.514C718.497 303.514 719.577 304.119 720.31 305.329C721.057 306.525 721.43 308.267 721.43 310.554C721.43 312.841 721.057 314.589 720.31 315.799C719.577 317.009 718.497 317.614 717.07 317.614C715.657 317.614 714.577 317.009 713.83 315.799C713.084 314.589 712.71 312.841 712.71 310.554C712.71 308.28 713.084 306.538 713.83 305.329C714.577 304.119 715.657 303.514 717.07 303.514ZM714.13 310.554C714.13 312.176 714.277 313.446 714.57 314.363L719.01 305.528C718.543 304.903 717.897 304.591 717.07 304.591C716.15 304.591 715.43 305.083 714.91 306.066C714.39 307.037 714.13 308.533 714.13 310.554ZM717.07 316.517C718.003 316.517 718.73 316.032 719.25 315.061C719.77 314.077 720.03 312.575 720.03 310.554C720.03 308.839 719.863 307.509 719.53 306.565L715.09 315.48C715.57 316.171 716.23 316.517 717.07 316.517Z" fill="url(#paint23_linear_175_220)"/>
<path d="M718.27 339.15H721.21V340.207H713.59V339.15H716.99V327.942L713.75 329.876L713.19 328.979L717.19 326.506H718.27V339.15Z" fill="url(#paint24_linear_175_220)"/>
<path d="M718.27 361.943H721.21V363H713.59V361.943H716.99V350.735L713.75 352.669L713.19 351.772L717.19 349.299H718.27V361.943Z" fill="url(#paint25_linear_175_220)"/>
<path d="M661.36 98.3784C662.786 98.3784 663.866 98.9834 664.599 100.193C665.346 101.39 665.719 103.132 665.719 105.419C665.719 107.705 665.346 109.454 664.599 110.664C663.866 111.874 662.786 112.479 661.36 112.479C659.946 112.479 658.867 111.874 658.12 110.664C657.373 109.454 657 107.705 657 105.419C657 103.145 657.373 101.403 658.12 100.193C658.867 98.9834 659.946 98.3784 661.36 98.3784ZM658.42 105.419C658.42 107.041 658.567 108.31 658.86 109.228L663.3 100.393C662.833 99.7678 662.186 99.4554 661.36 99.4554C660.44 99.4554 659.72 99.9473 659.2 100.931C658.68 101.902 658.42 103.398 658.42 105.419ZM661.36 111.382C662.293 111.382 663.02 110.896 663.54 109.926C664.06 108.942 664.319 107.44 664.319 105.419C664.319 103.703 664.153 102.374 663.82 101.43L659.38 110.345C659.86 111.036 660.52 111.382 661.36 111.382Z" fill="url(#paint26_linear_175_220)"/>
<path d="M661.36 121.171C662.786 121.171 663.866 121.776 664.599 122.986C665.346 124.183 665.719 125.924 665.719 128.211C665.719 130.498 665.346 132.247 664.599 133.457C663.866 134.666 662.786 135.271 661.36 135.271C659.946 135.271 658.867 134.666 658.12 133.457C657.373 132.247 657 130.498 657 128.211C657 125.938 657.373 124.196 658.12 122.986C658.867 121.776 659.946 121.171 661.36 121.171ZM658.42 128.211C658.42 129.833 658.567 131.103 658.86 132.021L663.3 123.186C662.833 122.561 662.186 122.248 661.36 122.248C660.44 122.248 659.72 122.74 659.2 123.724C658.68 124.695 658.42 126.19 658.42 128.211ZM661.36 134.174C662.293 134.174 663.02 133.689 663.54 132.719C664.06 131.735 664.319 130.232 664.319 128.211C664.319 126.496 664.153 125.167 663.82 124.223L659.38 133.137C659.86 133.829 660.52 134.174 661.36 134.174Z" fill="url(#paint27_linear_175_220)"/>
<path d="M662.56 156.808H665.499V157.865H657.88V156.808H661.28V145.599L658.04 147.534L657.48 146.636L661.48 144.163H662.56V156.808Z" fill="url(#paint28_linear_175_220)"/>
<path d="M661.36 166.757C662.786 166.757 663.866 167.362 664.599 168.572C665.346 169.768 665.719 171.51 665.719 173.797C665.719 176.084 665.346 177.832 664.599 179.042C663.866 180.252 662.786 180.857 661.36 180.857C659.946 180.857 658.867 180.252 658.12 179.042C657.373 177.832 657 176.084 657 173.797C657 171.523 657.373 169.782 658.12 168.572C658.867 167.362 659.946 166.757 661.36 166.757ZM658.42 173.797C658.42 175.419 658.567 176.689 658.86 177.606L663.3 168.771C662.833 168.146 662.186 167.834 661.36 167.834C660.44 167.834 659.72 168.326 659.2 169.31C658.68 170.28 658.42 171.776 658.42 173.797ZM661.36 179.76C662.293 179.76 663.02 179.275 663.54 178.304C664.06 177.32 664.319 175.818 664.319 173.797C664.319 172.082 664.153 170.752 663.82 169.808L659.38 178.723C659.86 179.414 660.52 179.76 661.36 179.76Z" fill="url(#paint29_linear_175_220)"/>
<path d="M662.56 202.393H665.499V203.45H657.88V202.393H661.28V191.185L658.04 193.12L657.48 192.222L661.48 189.749H662.56V202.393Z" fill="url(#paint30_linear_175_220)"/>
<path d="M662.56 225.186H665.499V226.243H657.88V225.186H661.28V213.978L658.04 215.912L657.48 215.015L661.48 212.542H662.56V225.186Z" fill="url(#paint31_linear_175_220)"/>
<path d="M699.7 65.6365H702.64V66.6936H695.02V65.6365H698.42V54.4282L695.18 56.3627L694.62 55.4653L698.62 52.9922H699.7V65.6365Z" fill="url(#paint32_linear_175_220)"/>
<path d="M698.5 75.5856C699.927 75.5856 701.006 76.1906 701.74 77.4005C702.486 78.5971 702.86 80.3389 702.86 82.6257C702.86 84.9126 702.486 86.661 701.74 87.8709C701.006 89.0808 699.927 89.6858 698.5 89.6858C697.087 89.6858 696.007 89.0808 695.26 87.8709C694.514 86.661 694.14 84.9126 694.14 82.6257C694.14 80.3522 694.514 78.6104 695.26 77.4005C696.007 76.1906 697.087 75.5856 698.5 75.5856ZM695.56 82.6257C695.56 84.2478 695.707 85.5176 696 86.435L700.44 77.5999C699.973 76.975 699.327 76.6626 698.5 76.6626C697.58 76.6626 696.86 77.1545 696.34 78.1384C695.82 79.109 695.56 80.6048 695.56 82.6257ZM698.5 88.5889C699.433 88.5889 700.16 88.1036 700.68 87.133C701.2 86.1491 701.46 84.6467 701.46 82.6257C701.46 80.9106 701.293 79.581 700.96 78.637L696.52 87.5518C697 88.2432 697.66 88.5889 698.5 88.5889Z" fill="url(#paint33_linear_175_220)"/>
<path d="M699.7 111.222H702.64V112.279H695.02V111.222H698.42V100.014L695.18 101.948L694.62 101.051L698.62 98.5778H699.7V111.222Z" fill="url(#paint34_linear_175_220)"/>
<path d="M699.7 134.015H702.64V135.072H695.02V134.015H698.42V122.807L695.18 124.741L694.62 123.844L698.62 121.371H699.7V134.015Z" fill="url(#paint35_linear_175_220)"/>
<path d="M698.5 143.964C699.927 143.964 701.006 144.569 701.74 145.779C702.486 146.976 702.86 148.717 702.86 151.004C702.86 153.291 702.486 155.039 701.74 156.249C701.006 157.459 699.927 158.064 698.5 158.064C697.087 158.064 696.007 157.459 695.26 156.249C694.514 155.039 694.14 153.291 694.14 151.004C694.14 148.731 694.514 146.989 695.26 145.779C696.007 144.569 697.087 143.964 698.5 143.964ZM695.56 151.004C695.56 152.626 695.707 153.896 696 154.813L700.44 145.978C699.973 145.353 699.327 145.041 698.5 145.041C697.58 145.041 696.86 145.533 696.34 146.517C695.82 147.487 695.56 148.983 695.56 151.004ZM698.5 156.967C699.433 156.967 700.16 156.482 700.68 155.511C701.2 154.528 701.46 153.025 701.46 151.004C701.46 149.289 701.293 147.959 700.96 147.015L696.52 155.93C697 156.622 697.66 156.967 698.5 156.967Z" fill="url(#paint36_linear_175_220)"/>
<path d="M699.7 179.601H702.64V180.658H695.02V179.601H698.42V168.392L695.18 170.327L694.62 169.429L698.62 166.956H699.7V179.601Z" fill="url(#paint37_linear_175_220)"/>
<path d="M699.7 202.393H702.64V203.45H695.02V202.393H698.42V191.185L695.18 193.12L694.62 192.222L698.62 189.749H699.7V202.393Z" fill="url(#paint38_linear_175_220)"/>
<path d="M698.5 212.342C699.927 212.342 701.006 212.947 701.74 214.157C702.486 215.354 702.86 217.096 702.86 219.383C702.86 221.669 702.486 223.418 701.74 224.628C701.006 225.838 699.927 226.443 698.5 226.443C697.087 226.443 696.007 225.838 695.26 224.628C694.514 223.418 694.14 221.669 694.14 219.383C694.14 217.109 694.514 215.367 695.26 214.157C696.007 212.947 697.087 212.342 698.5 212.342ZM695.56 219.383C695.56 221.005 695.707 222.274 696 223.192L700.44 214.357C699.973 213.732 699.327 213.419 698.5 213.419C697.58 213.419 696.86 213.911 696.34 214.895C695.82 215.866 695.56 217.362 695.56 219.383ZM698.5 225.346C699.433 225.346 700.16 224.86 700.68 223.89C701.2 222.906 701.46 221.404 701.46 219.383C701.46 217.667 701.293 216.338 700.96 215.394L696.52 224.309C697 225 697.66 225.346 698.5 225.346Z" fill="url(#paint39_linear_175_220)"/>
<path d="M699.7 247.979H702.64V249.036H695.02V247.979H698.42V236.771L695.18 238.705L694.62 237.808L698.62 235.335H699.7V247.979Z" fill="url(#paint40_linear_175_220)"/>
<path d="M698.5 257.928C699.927 257.928 701.006 258.533 701.74 259.743C702.486 260.94 702.86 262.681 702.86 264.968C702.86 267.255 702.486 269.003 701.74 270.213C701.006 271.423 699.927 272.028 698.5 272.028C697.087 272.028 696.007 271.423 695.26 270.213C694.514 269.003 694.14 267.255 694.14 264.968C694.14 262.695 694.514 260.953 695.26 259.743C696.007 258.533 697.087 257.928 698.5 257.928ZM695.56 264.968C695.56 266.59 695.707 267.86 696 268.777L700.44 259.942C699.973 259.317 699.327 259.005 698.5 259.005C697.58 259.005 696.86 259.497 696.34 260.481C695.82 261.451 695.56 262.947 695.56 264.968ZM698.5 270.931C699.433 270.931 700.16 270.446 700.68 269.475C701.2 268.492 701.46 266.989 701.46 264.968C701.46 263.253 701.293 261.923 700.96 260.979L696.52 269.894C697 270.586 697.66 270.931 698.5 270.931Z" fill="url(#paint41_linear_175_220)"/>
<path d="M735.64 52.7928C737.067 52.7928 738.147 53.3978 738.88 54.6077C739.627 55.8043 740 57.5461 740 59.8329C740 62.1198 739.627 63.8682 738.88 65.0781C738.147 66.288 737.067 66.893 735.64 66.893C734.227 66.893 733.147 66.288 732.401 65.0781C731.654 63.8682 731.281 62.1198 731.281 59.8329C731.281 57.5593 731.654 55.8176 732.401 54.6077C733.147 53.3978 734.227 52.7928 735.64 52.7928ZM732.7 59.8329C732.7 61.455 732.847 62.7248 733.14 63.6422L737.58 54.8071C737.114 54.1822 736.467 53.8698 735.64 53.8698C734.72 53.8698 734 54.3617 733.48 55.3456C732.96 56.3162 732.7 57.812 732.7 59.8329ZM735.64 65.7961C736.574 65.7961 737.3 65.3108 737.82 64.3402C738.34 63.3563 738.6 61.8539 738.6 59.8329C738.6 58.1178 738.433 56.7882 738.1 55.8442L733.66 64.759C734.14 65.4504 734.8 65.7961 735.64 65.7961Z" fill="url(#paint42_linear_175_220)"/>
<path d="M736.84 88.4293H739.78V89.4864H732.161V88.4293H735.56V77.221L732.321 79.1555L731.761 78.2581L735.76 75.785H736.84V88.4293Z" fill="url(#paint43_linear_175_220)"/>
<path d="M736.84 111.222H739.78V112.279H732.161V111.222H735.56V100.014L732.321 101.948L731.761 101.051L735.76 98.5778H736.84V111.222Z" fill="url(#paint44_linear_175_220)"/>
<path d="M735.64 121.171C737.067 121.171 738.147 121.776 738.88 122.986C739.627 124.183 740 125.924 740 128.211C740 130.498 739.627 132.247 738.88 133.457C738.147 134.666 737.067 135.271 735.64 135.271C734.227 135.271 733.147 134.666 732.401 133.457C731.654 132.247 731.281 130.498 731.281 128.211C731.281 125.938 731.654 124.196 732.401 122.986C733.147 121.776 734.227 121.171 735.64 121.171ZM732.7 128.211C732.7 129.833 732.847 131.103 733.14 132.021L737.58 123.186C737.114 122.561 736.467 122.248 735.64 122.248C734.72 122.248 734 122.74 733.48 123.724C732.96 124.695 732.7 126.19 732.7 128.211ZM735.64 134.174C736.574 134.174 737.3 133.689 737.82 132.719C738.34 131.735 738.6 130.232 738.6 128.211C738.6 126.496 738.433 125.167 738.1 124.223L733.66 133.137C734.14 133.829 734.8 134.174 735.64 134.174Z" fill="url(#paint45_linear_175_220)"/>
<path d="M735.64 143.964C737.067 143.964 738.147 144.569 738.88 145.779C739.627 146.976 740 148.717 740 151.004C740 153.291 739.627 155.039 738.88 156.249C738.147 157.459 737.067 158.064 735.64 158.064C734.227 158.064 733.147 157.459 732.401 156.249C731.654 155.039 731.281 153.291 731.281 151.004C731.281 148.731 731.654 146.989 732.401 145.779C733.147 144.569 734.227 143.964 735.64 143.964ZM732.7 151.004C732.7 152.626 732.847 153.896 733.14 154.813L737.58 145.978C737.114 145.353 736.467 145.041 735.64 145.041C734.72 145.041 734 145.533 733.48 146.517C732.96 147.487 732.7 148.983 732.7 151.004ZM735.64 156.967C736.574 156.967 737.3 156.482 737.82 155.511C738.34 154.528 738.6 153.025 738.6 151.004C738.6 149.289 738.433 147.959 738.1 147.015L733.66 155.93C734.14 156.622 734.8 156.967 735.64 156.967Z" fill="url(#paint46_linear_175_220)"/>
</g>
<defs>
<filter id="filter0_f_175_220" x="-798.19" y="-656.19" width="2141.38" height="1500.38" filterUnits="userSpaceOnUse" color-interpolation-filters="sRGB">
<feFlood flood-opacity="0" result="BackgroundImageFix"/>
<feBlend mode="normal" in="SourceGraphic" in2="BackgroundImageFix" result="shape"/>
<feGaussianBlur stdDeviation="200.095" result="effect1_foregroundBlur_175_220"/>
</filter>
<linearGradient id="paint0_linear_175_220" x1="698.5" y1="30" x2="698.5" y2="328.818" gradientUnits="userSpaceOnUse">
<stop stop-color="#F7DD43"/>
<stop offset="1" stop-color="#F7DD43" stop-opacity="0"/>
</linearGradient>
<linearGradient id="paint1_linear_175_220" x1="698.5" y1="30" x2="698.5" y2="328.818" gradientUnits="userSpaceOnUse">
<stop stop-color="#F7DD43"/>
<stop offset="1" stop-color="#F7DD43" stop-opacity="0"/>
</linearGradient>
<linearGradient id="paint2_linear_175_220" x1="698.5" y1="30" x2="698.5" y2="328.818" gradientUnits="userSpaceOnUse">
<stop stop-color="#F7DD43"/>
<stop offset="1" stop-color="#F7DD43" stop-opacity="0"/>
</linearGradient>
<linearGradient id="paint3_linear_175_220" x1="698.5" y1="30" x2="698.5" y2="328.818" gradientUnits="userSpaceOnUse">
<stop stop-color="#F7DD43"/>
<stop offset="1" stop-color="#F7DD43" stop-opacity="0"/>
</linearGradient>
<linearGradient id="paint4_linear_175_220" x1="698.5" y1="30" x2="698.5" y2="328.818" gradientUnits="userSpaceOnUse">
<stop stop-color="#F7DD43"/>
<stop offset="1" stop-color="#F7DD43" stop-opacity="0"/>
</linearGradient>
<linearGradient id="paint5_linear_175_220" x1="698.5" y1="30" x2="698.5" y2="328.818" gradientUnits="userSpaceOnUse">
<stop stop-color="#F7DD43"/>
<stop offset="1" stop-color="#F7DD43" stop-opacity="0"/>
</linearGradient>
<linearGradient id="paint6_linear_175_220" x1="698.5" y1="30" x2="698.5" y2="328.818" gradientUnits="userSpaceOnUse">
<stop stop-color="#F7DD43"/>
<stop offset="1" stop-color="#F7DD43" stop-opacity="0"/>
</linearGradient>
<linearGradient id="paint7_linear_175_220" x1="698.5" y1="30" x2="698.5" y2="328.818" gradientUnits="userSpaceOnUse">
<stop stop-color="#F7DD43"/>
<stop offset="1" stop-color="#F7DD43" stop-opacity="0"/>
</linearGradient>
<linearGradient id="paint8_linear_175_220" x1="698.5" y1="30" x2="698.5" y2="328.818" gradientUnits="userSpaceOnUse">
<stop stop-color="#F7DD43"/>
<stop offset="1" stop-color="#F7DD43" stop-opacity="0"/>
</linearGradient>
<linearGradient id="paint9_linear_175_220" x1="698.5" y1="30" x2="698.5" y2="328.818" gradientUnits="userSpaceOnUse">
<stop stop-color="#F7DD43"/>
<stop offset="1" stop-color="#F7DD43" stop-opacity="0"/>
</linearGradient>
<linearGradient id="paint10_linear_175_220" x1="698.5" y1="30" x2="698.5" y2="328.818" gradientUnits="userSpaceOnUse">
<stop stop-color="#F7DD43"/>
<stop offset="1" stop-color="#F7DD43" stop-opacity="0"/>
</linearGradient>
<linearGradient id="paint11_linear_175_220" x1="698.5" y1="30" x2="698.5" y2="328.818" gradientUnits="userSpaceOnUse">
<stop stop-color="#F7DD43"/>
<stop offset="1" stop-color="#F7DD43" stop-opacity="0"/>
</linearGradient>
<linearGradient id="paint12_linear_175_220" x1="698.5" y1="30" x2="698.5" y2="328.818" gradientUnits="userSpaceOnUse">
<stop stop-color="#F7DD43"/>
<stop offset="1" stop-color="#F7DD43" stop-opacity="0"/>
</linearGradient>
<linearGradient id="paint13_linear_175_220" x1="698.5" y1="30" x2="698.5" y2="328.818" gradientUnits="userSpaceOnUse">
<stop stop-color="#F7DD43"/>
<stop offset="1" stop-color="#F7DD43" stop-opacity="0"/>
</linearGradient>
<linearGradient id="paint14_linear_175_220" x1="698.5" y1="30" x2="698.5" y2="328.818" gradientUnits="userSpaceOnUse">
<stop stop-color="#F7DD43"/>
<stop offset="1" stop-color="#F7DD43" stop-opacity="0"/>
</linearGradient>
<linearGradient id="paint15_linear_175_220" x1="698.5" y1="30" x2="698.5" y2="328.818" gradientUnits="userSpaceOnUse">
<stop stop-color="#F7DD43"/>
<stop offset="1" stop-color="#F7DD43" stop-opacity="0"/>
</linearGradient>
<linearGradient id="paint16_linear_175_220" x1="698.5" y1="30" x2="698.5" y2="328.818" gradientUnits="userSpaceOnUse">
<stop stop-color="#F7DD43"/>
<stop offset="1" stop-color="#F7DD43" stop-opacity="0"/>
</linearGradient>
<linearGradient id="paint17_linear_175_220" x1="698.5" y1="30" x2="698.5" y2="328.818" gradientUnits="userSpaceOnUse">
<stop stop-color="#F7DD43"/>
<stop offset="1" stop-color="#F7DD43" stop-opacity="0"/>
</linearGradient>
<linearGradient id="paint18_linear_175_220" x1="698.5" y1="30" x2="698.5" y2="328.818" gradientUnits="userSpaceOnUse">
<stop stop-color="#F7DD43"/>
<stop offset="1" stop-color="#F7DD43" stop-opacity="0"/>
</linearGradient>
<linearGradient id="paint19_linear_175_220" x1="698.5" y1="30" x2="698.5" y2="328.818" gradientUnits="userSpaceOnUse">
<stop stop-color="#F7DD43"/>
<stop offset="1" stop-color="#F7DD43" stop-opacity="0"/>
</linearGradient>
<linearGradient id="paint20_linear_175_220" x1="698.5" y1="30" x2="698.5" y2="328.818" gradientUnits="userSpaceOnUse">
<stop stop-color="#F7DD43"/>
<stop offset="1" stop-color="#F7DD43" stop-opacity="0"/>
</linearGradient>
<linearGradient id="paint21_linear_175_220" x1="698.5" y1="30" x2="698.5" y2="328.818" gradientUnits="userSpaceOnUse">
<stop stop-color="#F7DD43"/>
<stop offset="1" stop-color="#F7DD43" stop-opacity="0"/>
</linearGradient>
<linearGradient id="paint22_linear_175_220" x1="698.5" y1="30" x2="698.5" y2="328.818" gradientUnits="userSpaceOnUse">
<stop stop-color="#F7DD43"/>
<stop offset="1" stop-color="#F7DD43" stop-opacity="0"/>
</linearGradient>
<linearGradient id="paint23_linear_175_220" x1="698.5" y1="30" x2="698.5" y2="328.818" gradientUnits="userSpaceOnUse">
<stop stop-color="#F7DD43"/>
<stop offset="1" stop-color="#F7DD43" stop-opacity="0"/>
</linearGradient>
<linearGradient id="paint24_linear_175_220" x1="698.5" y1="30" x2="698.5" y2="328.818" gradientUnits="userSpaceOnUse">
<stop stop-color="#F7DD43"/>
<stop offset="1" stop-color="#F7DD43" stop-opacity="0"/>
</linearGradient>
<linearGradient id="paint25_linear_175_220" x1="698.5" y1="30" x2="698.5" y2="328.818" gradientUnits="userSpaceOnUse">
<stop stop-color="#F7DD43"/>
<stop offset="1" stop-color="#F7DD43" stop-opacity="0"/>
</linearGradient>
<linearGradient id="paint26_linear_175_220" x1="698.5" y1="30" x2="698.5" y2="328.818" gradientUnits="userSpaceOnUse">
<stop stop-color="#F7DD43"/>
<stop offset="1" stop-color="#F7DD43" stop-opacity="0"/>
</linearGradient>
<linearGradient id="paint27_linear_175_220" x1="698.5" y1="30" x2="698.5" y2="328.818" gradientUnits="userSpaceOnUse">
<stop stop-color="#F7DD43"/>
<stop offset="1" stop-color="#F7DD43" stop-opacity="0"/>
</linearGradient>
<linearGradient id="paint28_linear_175_220" x1="698.5" y1="30" x2="698.5" y2="328.818" gradientUnits="userSpaceOnUse">
<stop stop-color="#F7DD43"/>
<stop offset="1" stop-color="#F7DD43" stop-opacity="0"/>
</linearGradient>
<linearGradient id="paint29_linear_175_220" x1="698.5" y1="30" x2="698.5" y2="328.818" gradientUnits="userSpaceOnUse">
<stop stop-color="#F7DD43"/>
<stop offset="1" stop-color="#F7DD43" stop-opacity="0"/>
</linearGradient>
<linearGradient id="paint30_linear_175_220" x1="698.5" y1="30" x2="698.5" y2="328.818" gradientUnits="userSpaceOnUse">
<stop stop-color="#F7DD43"/>
<stop offset="1" stop-color="#F7DD43" stop-opacity="0"/>
</linearGradient>
<linearGradient id="paint31_linear_175_220" x1="698.5" y1="30" x2="698.5" y2="328.818" gradientUnits="userSpaceOnUse">
<stop stop-color="#F7DD43"/>
<stop offset="1" stop-color="#F7DD43" stop-opacity="0"/>
</linearGradient>
<linearGradient id="paint32_linear_175_220" x1="698.5" y1="30" x2="698.5" y2="328.818" gradientUnits="userSpaceOnUse">
<stop stop-color="#F7DD43"/>
<stop offset="1" stop-color="#F7DD43" stop-opacity="0"/>
</linearGradient>
<linearGradient id="paint33_linear_175_220" x1="698.5" y1="30" x2="698.5" y2="328.818" gradientUnits="userSpaceOnUse">
<stop stop-color="#F7DD43"/>
<stop offset="1" stop-color="#F7DD43" stop-opacity="0"/>
</linearGradient>
<linearGradient id="paint34_linear_175_220" x1="698.5" y1="30" x2="698.5" y2="328.818" gradientUnits="userSpaceOnUse">
<stop stop-color="#F7DD43"/>
<stop offset="1" stop-color="#F7DD43" stop-opacity="0"/>
</linearGradient>
<linearGradient id="paint35_linear_175_220" x1="698.5" y1="30" x2="698.5" y2="328.818" gradientUnits="userSpaceOnUse">
<stop stop-color="#F7DD43"/>
<stop offset="1" stop-color="#F7DD43" stop-opacity="0"/>
</linearGradient>
<linearGradient id="paint36_linear_175_220" x1="698.5" y1="30" x2="698.5" y2="328.818" gradientUnits="userSpaceOnUse">
<stop stop-color="#F7DD43"/>
<stop offset="1" stop-color="#F7DD43" stop-opacity="0"/>
</linearGradient>
<linearGradient id="paint37_linear_175_220" x1="698.5" y1="30" x2="698.5" y2="328.818" gradientUnits="userSpaceOnUse">
<stop stop-color="#F7DD43"/>
<stop offset="1" stop-color="#F7DD43" stop-opacity="0"/>
</linearGradient>
<linearGradient id="paint38_linear_175_220" x1="698.5" y1="30" x2="698.5" y2="328.818" gradientUnits="userSpaceOnUse">
<stop stop-color="#F7DD43"/>
<stop offset="1" stop-color="#F7DD43" stop-opacity="0"/>
</linearGradient>
<linearGradient id="paint39_linear_175_220" x1="698.5" y1="30" x2="698.5" y2="328.818" gradientUnits="userSpaceOnUse">
<stop stop-color="#F7DD43"/>
<stop offset="1" stop-color="#F7DD43" stop-opacity="0"/>
</linearGradient>
<linearGradient id="paint40_linear_175_220" x1="698.5" y1="30" x2="698.5" y2="328.818" gradientUnits="userSpaceOnUse">
<stop stop-color="#F7DD43"/>
<stop offset="1" stop-color="#F7DD43" stop-opacity="0"/>
</linearGradient>
<linearGradient id="paint41_linear_175_220" x1="698.5" y1="30" x2="698.5" y2="328.818" gradientUnits="userSpaceOnUse">
<stop stop-color="#F7DD43"/>
<stop offset="1" stop-color="#F7DD43" stop-opacity="0"/>
</linearGradient>
<linearGradient id="paint42_linear_175_220" x1="698.5" y1="30" x2="698.5" y2="328.818" gradientUnits="userSpaceOnUse">
<stop stop-color="#F7DD43"/>
<stop offset="1" stop-color="#F7DD43" stop-opacity="0"/>
</linearGradient>
<linearGradient id="paint43_linear_175_220" x1="698.5" y1="30" x2="698.5" y2="328.818" gradientUnits="userSpaceOnUse">
<stop stop-color="#F7DD43"/>
<stop offset="1" stop-color="#F7DD43" stop-opacity="0"/>
</linearGradient>
<linearGradient id="paint44_linear_175_220" x1="698.5" y1="30" x2="698.5" y2="328.818" gradientUnits="userSpaceOnUse">
<stop stop-color="#F7DD43"/>
<stop offset="1" stop-color="#F7DD43" stop-opacity="0"/>
</linearGradient>
<linearGradient id="paint45_linear_175_220" x1="698.5" y1="30" x2="698.5" y2="328.818" gradientUnits="userSpaceOnUse">
<stop stop-color="#F7DD43"/>
<stop offset="1" stop-color="#F7DD43" stop-opacity="0"/>
</linearGradient>
<linearGradient id="paint46_linear_175_220" x1="698.5" y1="30" x2="698.5" y2="328.818" gradientUnits="userSpaceOnUse">
<stop stop-color="#F7DD43"/>
<stop offset="1" stop-color="#F7DD43" stop-opacity="0"/>
</linearGradient>
</defs>
</svg>
